<svg height="100px" width="100px" fill="#308d34" xmlns="http://www.w3.org/2000/svg" data-name="Layer 1" viewBox="0 0 100 100" x="0px" y="0px">
	<title>
		Artboard 8
	</title>
	<path d="M30.29,33,75.83,19.48a8.61,8.61,0,0,1,10.81,6.18L89,35.08H30.59A1.06,1.06,0,0,1,30.29,33ZM53,2.51,13.34,29.75a1,1,0,0,0,.84,1.72l56-18.13.12,0L65.22,5.06A8.61,8.61,0,0,0,53,2.51ZM50,82.22A11.27,11.27,0,1,0,38.73,70.95,11.27,11.27,0,0,0,50,82.22ZM14.77,42.89H85.23a8.52,8.52,0,0,1,8.52,8.52V90.48A8.52,8.52,0,0,1,85.23,99H14.77a8.52,8.52,0,0,1-8.52-8.52V51.41A8.52,8.52,0,0,1,14.77,42.89ZM16,77.47A15.63,15.63,0,0,1,27.79,89.23H72.21A15.63,15.63,0,0,1,84,77.47v-13A15.63,15.63,0,0,1,72.21,52.66H27.79A15.63,15.63,0,0,1,16,64.42Z">
	</path>
</svg>
